<svg xmlns="http://www.w3.org/2000/svg" viewBox="0 0 361.42 241.36"><defs><style>.a{fill:#00a0da;}.b{fill:#59cbf5;}.c{fill:#00aae7;}.d{fill:#f1b639;}</style></defs><title>logo</title><path class="a" d="M176.21,188.14q-2.69-11.28-11.41-36l-2.42-6.84q-13.95-39.6-13.95-49,0-13.25,11.06-28a114.86,114.86,0,0,1,12.15-13.58Q169.23,42,160.5,42q-6.56,0-16.86,11.67-1.45,1.65-3,3.52l-1,1.19a58.64,58.64,0,0,0-10.17,19,63.55,63.55,0,0,0-2.85,19.2q0,17.31,11.81,50.06L139.7,150q17.18,47.79,17.18,64.83a32.72,32.72,0,0,1-9.13,23.08q-5.37,5.77-20.53,15.44v.53q0,8.19,14,14.23,38.52-16.78,38.52-54.36a114.06,114.06,0,0,0-3.49-25.63" transform="translate(-58.43 -27.03)"/><path class="b" d="M105.93,88.27q-6.42-.34-15.6-.34-1.56,69-1.56,119.28a22.52,22.52,0,0,1-7.63,1.73,16.05,16.05,0,0,1-7.46-2.25q1.56-47,1.56-94.66v-3.21q-.17-13.6-.17-20.89Q70,88,60,88.27a14.89,14.89,0,0,1-1.56-6.76,5.88,5.88,0,0,1,.08-.91,6,6,0,0,0,.09-.91q2.68-6.5,19.5-6.5,13.53,0,30.52,4.42v2.08a12.94,12.94,0,0,1-2.69,8.58" transform="translate(-58.43 -27.03)"/><path class="c" d="M98.94,152.76A27.23,27.23,0,0,1,97,144.09a13.72,13.72,0,0,1,.52-3.64,89.52,89.52,0,0,1,19.5-2.17c.41,0,1.91.06,4.51.18h3.82a31.92,31.92,0,0,1-2.95,12.74,207.3,207.3,0,0,0-23.49,1.56" transform="translate(-58.43 -27.03)"/><path class="b" d="M182.22,81.51a33,33,0,0,1,8-1,23.6,23.6,0,0,1,6.59,1.39,26.5,26.5,0,0,1,1.56,6.93,20.46,20.46,0,0,1-1.73,6.5,27.23,27.23,0,0,1-7.46,1.3,36,36,0,0,1-6.76-1.21A31.7,31.7,0,0,1,181,87.93a34.45,34.45,0,0,1,1.22-6.42m1.21,126.39q-1.22-30.85-1.21-51.84,0-13.69,1.21-47.07a21.41,21.41,0,0,1,6.42-1,28.42,28.42,0,0,1,6.15.69q1,34.17.95,67.88,0,5-.08,15v14.91a14.08,14.08,0,0,1-8,2.69,18,18,0,0,1-5.41-1.22" transform="translate(-58.43 -27.03)"/><path class="b" d="M206.84,205.39q3.56-11.79,3.55-38.66,0-22.36-2.51-54.88c1.9-2.43,5.31-4,10.23-4.77h.78q5,0,5.72,6.85a15.88,15.88,0,0,1,12-5.29q7.46,0,12.05,7.11,8.49-8.67,17.77-8.67,11,0,15,10.84,2.41,6.67,2.42,20.2,0,8.32-.65,25t-.65,25.05q0,8.94.52,18.47-6.24,2.77-10.23,2.77a16.84,16.84,0,0,1-6.76-1.82q2.43-30.69,2.43-53,0-18.39-.09-19-1.29-14.56-8.06-14.56-5.46,0-6.85,8.75a109.47,109.47,0,0,0-.43,12.66q0,3.21.09,9.62t.08,9.62q0,8.67.26,20.46l.26,15q0,2.25-.26,6.59l-.08.52-3.65,1.91a14,14,0,0,1-3.12.26,12.73,12.73,0,0,1-8.49-2.78q.17-4.34.35-14.56l.51-38.84q0-14.47-.08-15.86Q237.89,122,232.66,122q-3.85,0-7.53,4.08l-.37,7.37q-.24,3.56-.24,7,0,23,.61,44.38v5.64q0,10.92-2.49,17.42a21.5,21.5,0,0,1-5.24.87q-4.56,0-10.56-3.38" transform="translate(-58.43 -27.03)"/><path class="b" d="M295.35,112.63a57.78,57.78,0,0,1,5.83-.43c.52,0,1.28,0,2.26.08s1.74.09,2.26.09q7.92-5.28,13.5-5.29,18.54,0,18.54,45.78,0,19.5-2.95,33.2-5,23.83-17.77,23.84c-2.31,0-4.74-1-7.28-3v12.57a159.41,159.41,0,0,0,.86,18.12q-5.12,4.77-10.49,4.77-4.75,0-4.76-9.88V112.63Zm14.39,49.67q0,14.4.26,17.95,1,15.25,5.37,15.26,7.8,0,7.8-41,0-34.5-8-34.5-4,0-5,5.29a48.48,48.48,0,0,0-.43,8.23Z" transform="translate(-58.43 -27.03)"/><path class="b" d="M364.18,74.84q-.71,25.3-.7,45.16,0,60.76,1.39,87.73a56.65,56.65,0,0,1-9.36,1.21,19.87,19.87,0,0,1-6.59-1.38q.16-14.75.26-28l.09-24.71q0-40.92-1.56-79.41a22.68,22.68,0,0,1,8.49-2.08,23.76,23.76,0,0,1,8,1.48" transform="translate(-58.43 -27.03)"/><path class="b" d="M414.46,195.85a27.56,27.56,0,0,1,.17,2.86,10.06,10.06,0,0,1-4,8.33,14.18,14.18,0,0,1-9,2.86q-27.13,0-27.14-45.34a118.32,118.32,0,0,1,4.94-34q7-23.49,20.46-23.5,8.5,0,12.66,11.1a52.44,52.44,0,0,1,2.95,18.2,48.25,48.25,0,0,1-2.26,14.74,39.51,39.51,0,0,1-6.93.87q-2.78,0-7.89-.35-5.55-.34-7.89-.35-.78,8.6-.78,13.79,0,15.69,2.6,21.5,4.08,9.45,17.34,9.45h1.73l1-.09c.7-.06,1.36-.09,2-.09m-11.27-55.22c.14-1.33.29-2.71.43-4.16v-2.25q0-12.23-5.55-12.23-4.59,0-6.67,19.68Z" transform="translate(-58.43 -27.03)"/><path class="d" d="M140.59,57.26l-2.85.52a12.6,12.6,0,0,0-2.89-2.85l1.22-4.43a17.4,17.4,0,0,0-3.65-1.59l-2.7,3.88a12.62,12.62,0,0,0-3.93-.08l-2.27-4a17.44,17.44,0,0,0-1.91.59l-.51.19-.25.1-.06,0c-.33.15-.63.32-1,.49h0l.83,4.58a12.42,12.42,0,0,0-3,2.8l-4.47-1.21a16.88,16.88,0,0,0-1.63,3.5l3.79,2.65a12.42,12.42,0,0,0-.19,4.39v0l-4,2.27a18.49,18.49,0,0,0,.63,2,16.58,16.58,0,0,0,.66,1.56l4.55-.84a12.35,12.35,0,0,0,3.22,3.45L119,79.7a17.18,17.18,0,0,0,3.39,1.51L125,77.39a12.3,12.3,0,0,0,4.45.12,58.69,58.69,0,0,1,10.17-19.06l1-1.19M129.34,69.8a5.14,5.14,0,0,1-3.87-9.52l.25-.1a5.14,5.14,0,1,1,3.62,9.62" transform="translate(-58.43 -27.03)"/><path class="d" d="M185.9,52.54c.06-.66.07-1.3.07-2a22.89,22.89,0,0,0-.3-3.43L179.28,46a17.39,17.39,0,0,0-2.37-5.13l3.77-5.16a23.83,23.83,0,0,0-4-3.87l-5.43,3.73a17.1,17.1,0,0,0-5.06-2l-1-6.33a25.1,25.1,0,0,0-2.76-.16c-.25,0-.52,0-.77,0s-.24,0-.36,0h-.1c-.5,0-1,.11-1.47.16h0l-1.17,6.37a17.19,17.19,0,0,0-5.29,2.16L148,32a23.9,23.9,0,0,0-3.83,3.76l3.63,5.3a17.59,17.59,0,0,0-2.4,5.62v0l-6.33,1a25.07,25.07,0,0,0-.16,2.89,23.24,23.24,0,0,0,.1,2.37l4.51.81q10.29-11.65,16.87-11.67,8.72,0,11.14,12.75a114.12,114.12,0,0,0-12.16,13.58L160.3,74c.71.06,1.43.06,2.16.06a24.69,24.69,0,0,0,3-.16l1.2-6.43a17.47,17.47,0,0,0,5.89-2.7l5.13,3.73a24.2,24.2,0,0,0,3.6-3.83l-3.73-5.39a17.16,17.16,0,0,0,2.06-5.73Z" transform="translate(-58.43 -27.03)"/><path class="a" d="M181.08,256.61a16.8,16.8,0,0,1-1.33,4.68c-.93,1.95-2.08,2.93-3.47,2.93s-2.36-1.38-2.88-4.15a3.6,3.6,0,0,1-.93-2.52,2.7,2.7,0,0,1,1.4-2.56c.94-.51,3-.88,6.17-1.09,0-.74.05-1.07.05-1q0-1.32-.69-1.32a2.58,2.58,0,0,0-1.24.54l-.3-.39c.36-.67.73-1.33,1.11-2,.53-.89,1-1.34,1.51-1.34.65,0,1,.64,1,1.91,0,.72-.07,1.87-.19,3.46,1.3-.14,2.83-.35,4.57-.61q1.36-4.76,2-4.76c.37,0,.65.28.82.84a16.52,16.52,0,0,1,.23,3.54c0,1.19-.79,2.11-2.37,2.74a9.45,9.45,0,0,0-.27,2.36c0,1.09.34,1.64,1,1.64a1,1,0,0,0,.72-.28l.4-.34h0l0,0s0,.22,0,.63a20.35,20.35,0,0,0-1.78,2.2c-.8,1.06-1.47,1.59-2,1.59s-.85-.42-.85-1.25a30.66,30.66,0,0,1,1.34-6.23c-1.4.28-2.74.52-4,.72m-1.32.23q-2.73.56-3.27.72c-1.56.48-2.34,1.09-2.34,1.81a3,3,0,0,0,.41,1.56,1.44,1.44,0,0,0,1.3.82,3.28,3.28,0,0,0,2.34-1.44,7.23,7.23,0,0,0,1.56-3.47" transform="translate(-58.43 -27.03)"/><path class="a" d="M196.93,258a13.54,13.54,0,0,1-.56,2.93,3.74,3.74,0,0,1-2.09,2,5.11,5.11,0,0,1-2,.44,2.09,2.09,0,0,1-2.33-2.39,13.61,13.61,0,0,1,.4-3.11,6.53,6.53,0,0,1,1.08-2.63,3.13,3.13,0,0,1,2.59-1.07,8.7,8.7,0,0,1,1,.05,1.16,1.16,0,0,1,.71-.38c.47,0,.83.29,1.08.88a3.76,3.76,0,0,1,.27,1.46,2,2,0,0,0,.51-.32l.26.24-.3,1.08c-.14.48-.34.74-.59.8m-6.22,8.33.32-.22a2.86,2.86,0,0,0,.54.07,3,3,0,0,0,1.91-.59l.28.35a5,5,0,0,0-.47,1.24,1.47,1.47,0,0,1-.83,1,2.86,2.86,0,0,1-1.11.2c-.49,0-.73-.22-.73-.64a2.31,2.31,0,0,1,.08-.49,2.34,2.34,0,0,0,.07-.49,3.45,3.45,0,0,0-.06-.41m4.3-8.25c-.3-.09-.44-.55-.44-1.38a15.67,15.67,0,0,1,.11-1.84l-.14,0c-.62,0-1.14.86-1.56,2.6a14.75,14.75,0,0,0-.48,3.38,1.77,1.77,0,0,0,.26.94,1,1,0,0,0,.83.46c.32,0,.58-.28.8-.84a19.94,19.94,0,0,0,.62-3.3" transform="translate(-58.43 -27.03)"/><path class="a" d="M203.71,260.69l-.11.91c-1.5,1.23-2.64,1.85-3.44,1.85-1.1,0-1.65-.71-1.65-2.14a13.24,13.24,0,0,1,.6-3.78c.5-1.66,1.15-2.69,1.95-3.12a3,3,0,0,1,1.62-.23,2.89,2.89,0,0,1,.77-.15c.41,0,.72.25.93.76a3.76,3.76,0,0,1,.25,1.26l-1,1.08-.4-.14c0-1.07-.17-1.6-.42-1.6s-.55.8-.95,2.41a16,16,0,0,0-.56,3q0,.84.63.84a3.85,3.85,0,0,0,1.81-.93" transform="translate(-58.43 -27.03)"/><path class="a" d="M210.22,260.44l.64-.1a2.08,2.08,0,0,0,.41,1.19,1.35,1.35,0,0,0,1.12.53.75.75,0,0,0,.84-.86,1.39,1.39,0,0,0-.68-1.07l-1.27-.9a2,2,0,0,1-.68-1.5,3.29,3.29,0,0,1,1.45-2.55,4.39,4.39,0,0,1,2.82-1.13q.81,0,.81.75a5.18,5.18,0,0,1-.1.8c-.07.44-.12.73-.13.85h-.56c0-.16,0-.2,0-.13,0-.49-.36-.73-1.08-.73q-1.35,0-1.35.75c0,.22.26.48.79.8a10,10,0,0,1,1.47,1,2,2,0,0,1,.8,1.56,2,2,0,0,1-.31,1.05,6.41,6.41,0,0,1-1.58,1.72,3.69,3.69,0,0,1-2.08,1,1.57,1.57,0,0,1-1.24-.52,1.84,1.84,0,0,1-.45-1.28,2.18,2.18,0,0,1,.34-1.21" transform="translate(-58.43 -27.03)"/><path class="a" d="M221.62,260.1q-1.26,1.57-1.53,1.86c-.82.93-1.43,1.39-1.82,1.39a1.3,1.3,0,0,1-1.15-.68,2.4,2.4,0,0,1-.37-1.33,13.14,13.14,0,0,1,.26-2.23,18.36,18.36,0,0,1,.6-2.59,3.56,3.56,0,0,1,1.66-2,3.93,3.93,0,0,1,1.84-.42,6.35,6.35,0,0,1,.84.07l.14.56c-1,0-1.65.75-2.11,2.24a11.07,11.07,0,0,0-.49,3.37c0,.34.1.52.28.52s.93-.59,1.95-1.78a28,28,0,0,1,.5-2.79c.36-1.55.74-2.32,1.12-2.32a1.27,1.27,0,0,1,1,.65,2.1,2.1,0,0,1,.4,1.14,2.27,2.27,0,0,1-.51,1.24,28.88,28.88,0,0,0-.3,3.48c0,.58.23.91.7,1v.43c-.24,0-.58.29-1,.78a1.71,1.71,0,0,1-1.15.73c-.65,0-1-.49-1-1.47,0-.26.06-.87.16-1.84m-1.74-7.26,2.12-1.93c1.12-.95,1.88-1.42,2.28-1.42a1,1,0,0,1,.78.32,1,1,0,0,1,.31.77c0,1-1.83,1.8-5.49,2.26" transform="translate(-58.43 -27.03)"/><path class="a" d="M226.85,255.2l.07-.52a6.17,6.17,0,0,0,1.1-.36,3.45,3.45,0,0,1,1.08-.27c.55,0,.83.31.83.95a23,23,0,0,1-.59,2.77l-.39,1.56q1.49-2.59,2.72-4.44a1.51,1.51,0,0,1,.66-.59,3.2,3.2,0,0,1,1-.14c.47,0,.7.22.7.66a14.73,14.73,0,0,1-.28,1.64c-.16.78-.38,2-.67,3.51a7.76,7.76,0,0,0-.11.9.78.78,0,0,0,.68.84v.36c-.11.06-.46.3-1.07.75a2.47,2.47,0,0,1-1,.53,1,1,0,0,1-.85-.47,1.68,1.68,0,0,1-.26-1,29.59,29.59,0,0,1,.85-4.72l.21-.9a25.64,25.64,0,0,0-3.31,6.1c-.16.55-.73.83-1.72.83a.53.53,0,0,1-.58-.61,12.56,12.56,0,0,1,.4-1.89,28,28,0,0,0,1-4.71.88.88,0,0,0-.51-.82" transform="translate(-58.43 -27.03)"/><path class="a" d="M240.28,260.76c-1.88,1.79-2.94,2.69-3.19,2.69a1.54,1.54,0,0,1-1.22-.57,1.87,1.87,0,0,1-.44-1.25,15.5,15.5,0,0,1,.56-3.79c.45-1.75,1-2.84,1.67-3.27a3.05,3.05,0,0,1,1.65-.39,5.45,5.45,0,0,1,1.36.16l.1.58a.53.53,0,0,1-.16,0h-.16a1.39,1.39,0,0,0-.95.34,4.59,4.59,0,0,0-1,2.37,13.5,13.5,0,0,0-.3,2.64c0,.48.16.73.47.73s.83-.44,1.59-1.32c.19-1.32.29-2.11.33-2.36a11.58,11.58,0,0,1,.54-2.28c.24-.6.55-.9,1-.9a1.08,1.08,0,0,1,.86.6,2,2,0,0,1,.34,1,2.21,2.21,0,0,1-.27.89c-.23.47-.36.74-.38.81a14.88,14.88,0,0,0-.18,2.34c0,.95-.07,2.2-.07,3.76a2.81,2.81,0,0,1-.52,1.78,4.42,4.42,0,0,1-1.38,1.06l-.49.25a6.87,6.87,0,0,1-.78.56,1.8,1.8,0,0,1-.76.18,3.72,3.72,0,0,1-1.9-.6c-.74-.45-1.11-.94-1.11-1.48q0-1.08,1.23-1.08a7.35,7.35,0,0,1,.85.09c.51.08.81.12.91.12v.44q-.36,0-.36.24c0,.18.19.38.59.58a2,2,0,0,0,.87.28.4.4,0,0,0,.36-.18,1.12,1.12,0,0,0,.12-.6,37.71,37.71,0,0,1,.23-4.43" transform="translate(-58.43 -27.03)"/><path class="a" d="M251.19,256a4.32,4.32,0,0,1-.62-.11.46.46,0,0,1-.33-.46,3.33,3.33,0,0,1,.1-.65c.1-.38.15-.6.16-.67a2.26,2.26,0,0,0,1.05.27l.57-2.17a13.55,13.55,0,0,0,2.36-.78l.28.33c-.23.81-.48,1.75-.75,2.83h.28a2.75,2.75,0,0,0,.82-.15l.06.52-.48.73c-.23.31-.45.46-.66.46a1.1,1.1,0,0,1-.38,0,31.78,31.78,0,0,0-.78,4.45c0,.54.18.81.55.81a2.61,2.61,0,0,0,1.35-.68l0,.78c-1.63,1.31-2.79,2-3.46,2s-1.14-.52-1.14-1.56a12.81,12.81,0,0,1,.25-2q.26-1.41.81-3.9" transform="translate(-58.43 -27.03)"/><path class="a" d="M260.94,260.1q-1.26,1.57-1.53,1.86c-.83.93-1.43,1.39-1.83,1.39a1.29,1.29,0,0,1-1.14-.68,2.41,2.41,0,0,1-.38-1.33,12.35,12.35,0,0,1,.27-2.23,18.74,18.74,0,0,1,.6-2.59,3.58,3.58,0,0,1,1.65-2,4,4,0,0,1,1.85-.42,6.36,6.36,0,0,1,.83.07l.14.56c-.94,0-1.65.75-2.11,2.24a11.39,11.39,0,0,0-.48,3.37c0,.34.09.52.28.52s.93-.59,2-1.78a28,28,0,0,1,.5-2.79c.36-1.55.73-2.32,1.12-2.32a1.24,1.24,0,0,1,1,.65,2.12,2.12,0,0,1,.41,1.14,2.27,2.27,0,0,1-.51,1.24,29.35,29.35,0,0,0-.31,3.48c0,.58.24.91.71,1v.43c-.25,0-.58.29-1,.78a1.74,1.74,0,0,1-1.16.74c-.65,0-1-.5-1-1.48,0-.26.05-.87.16-1.84m-3.38,6.26.32-.22a2.67,2.67,0,0,0,.54.07,3,3,0,0,0,1.9-.59l.29.35a5.35,5.35,0,0,0-.48,1.24,1.45,1.45,0,0,1-.83,1,2.82,2.82,0,0,1-1.11.2c-.48,0-.72-.22-.72-.64a2.18,2.18,0,0,1,.07-.49,2.52,2.52,0,0,0,.08-.49,3.45,3.45,0,0,0-.06-.41" transform="translate(-58.43 -27.03)"/><path class="a" d="M272.33,258a13.54,13.54,0,0,1-.56,2.93,3.74,3.74,0,0,1-2.09,2,5.11,5.11,0,0,1-2,.44,2.09,2.09,0,0,1-2.33-2.39,13.61,13.61,0,0,1,.4-3.11,6.53,6.53,0,0,1,1.08-2.63,3.13,3.13,0,0,1,2.59-1.07,8.7,8.7,0,0,1,1,.05,1.16,1.16,0,0,1,.71-.38c.47,0,.83.29,1.08.88a3.76,3.76,0,0,1,.27,1.46,2,2,0,0,0,.51-.32l.26.24-.3,1.08c-.14.48-.34.74-.59.8m-1.92.08c-.3-.09-.44-.55-.44-1.38a15.67,15.67,0,0,1,.11-1.84l-.14,0c-.62,0-1.14.86-1.56,2.6a14.75,14.75,0,0,0-.48,3.38,1.77,1.77,0,0,0,.26.94,1,1,0,0,0,.83.46c.32,0,.58-.28.8-.84a19.94,19.94,0,0,0,.62-3.3" transform="translate(-58.43 -27.03)"/><path class="a" d="M285.19,257.36l.29.24a5.63,5.63,0,0,1-1.05,1.44,2.6,2.6,0,0,1-1.69.5h-.8a7.41,7.41,0,0,1-2.09-.17.63.63,0,0,1-.43-.65,2.51,2.51,0,0,1,0-.4,2.83,2.83,0,0,0,.05-.4,1.38,1.38,0,0,0-.07-.31l.28-.21a7.94,7.94,0,0,0,3.08.37,6.21,6.21,0,0,0,2.39-.41" transform="translate(-58.43 -27.03)"/><path class="a" d="M304.5,257.27l.42,0a3.73,3.73,0,0,0-.11.85,4.75,4.75,0,0,0,0,.48c0,.22,0,.38,0,.49a2.52,2.52,0,0,1-.32,1.29,3.21,3.21,0,0,1-1,1,11.45,11.45,0,0,1-6.47,1.95q-4.41,0-4.41-4.63a8.34,8.34,0,0,1,2.5-5.65,16.75,16.75,0,0,1,5.2-3.77,8.67,8.67,0,0,1,3.33-1.05c1.2,0,1.8.56,1.8,1.69a3.87,3.87,0,0,1-.73,1.76,17.78,17.78,0,0,0-1.05,1.81l-.61-.18a3.33,3.33,0,0,0,.21-.93c0-.57-.35-.86-1-.86a7.92,7.92,0,0,0-4.24,1.58,11.47,11.47,0,0,0-3.29,3.15,4,4,0,0,0-.83,2.13c0,1.07.74,1.6,2.21,1.6a14.32,14.32,0,0,0,4.45-.75,13.6,13.6,0,0,0,4-2" transform="translate(-58.43 -27.03)"/><path class="a" d="M314.13,262l-1.08.81a2.16,2.16,0,0,1-1.14.53c-.73,0-1.09-.53-1.09-1.57a18.46,18.46,0,0,1,1-5,23.64,23.64,0,0,0-2.49,4.24c-.2.48-.54,1.16-1,2.06a.57.57,0,0,1-.11.16,2.16,2.16,0,0,1-.86-.19c-.37-.16-.56-.35-.56-.57a43.87,43.87,0,0,1,1.42-7.1c1-3.92,1.66-6.07,2.07-6.47a2.85,2.85,0,0,1,2-.65q.78,0,.78.81a5.74,5.74,0,0,1-.92,2.69,13.33,13.33,0,0,1-1.69,2.39c-.48,1.79-.91,3.59-1.29,5.42.9-1.57,1.54-2.62,1.91-3.14,1-1.48,1.92-2.22,2.63-2.22.5,0,.76.29.76.85A20.27,20.27,0,0,1,314,258c-.11.49-.26,1.23-.46,2.21a5.23,5.23,0,0,0-.1.77c0,.39.24.61.72.65Z" transform="translate(-58.43 -27.03)"/><path class="a" d="M322.84,258a13.68,13.68,0,0,1-.56,2.93,3.74,3.74,0,0,1-2.09,2,5.1,5.1,0,0,1-2,.43,2.08,2.08,0,0,1-2.32-2.38,13.07,13.07,0,0,1,.4-3.11,6.53,6.53,0,0,1,1.08-2.63,3.12,3.12,0,0,1,2.59-1.07,8.37,8.37,0,0,1,1,.05,1.2,1.2,0,0,1,.72-.38c.47,0,.82.29,1.07.88a3.59,3.59,0,0,1,.28,1.46,2,2,0,0,0,.51-.32l.26.24-.3,1.08c-.14.47-.34.74-.59.8m-1.92.08q-.45-.14-.45-1.38a15.85,15.85,0,0,1,.12-1.84l-.14,0c-.62,0-1.15.86-1.56,2.6a14.75,14.75,0,0,0-.48,3.38,1.77,1.77,0,0,0,.26.94,1,1,0,0,0,.83.46c.32,0,.58-.28.79-.84a18.6,18.6,0,0,0,.63-3.3m1.9-1-.37-.26a5.65,5.65,0,0,0,.83-2.66.66.66,0,0,0-.37-.63v-.32a4.62,4.62,0,0,0,1.11-.39,3.29,3.29,0,0,1,1-.31c.44,0,.65.26.65.78q0,1.33-2.85,3.79" transform="translate(-58.43 -27.03)"/><path class="a" d="M325.74,255.56l.12-.52a6.38,6.38,0,0,0,1.18-.54,2.74,2.74,0,0,1,1.12-.41c.69,0,1,.37,1,1.11a11.55,11.55,0,0,1-.49,2.31c-.26,1-.46,1.73-.6,2.34a5.72,5.72,0,0,0-.17,1c0,.35.21.52.61.52l.21.36a11,11,0,0,0-1.16,1,2,2,0,0,1-1.26.7c-.8,0-1.2-.5-1.2-1.49a11.9,11.9,0,0,1,.58-3,11.71,11.71,0,0,0,.58-2.61.78.78,0,0,0-.56-.78m1.33-6.19.42-.08a.53.53,0,0,0,.43.28,2.33,2.33,0,0,0,1.49-.56l.21,0c0,.28,0,.48,0,.59a1.65,1.65,0,0,1-1.86,1.88c-.64,0-1-.2-1-.62a3.65,3.65,0,0,1,.12-.76,3.56,3.56,0,0,0,.12-.76" transform="translate(-58.43 -27.03)"/><path class="a" d="M337.16,256a4.32,4.32,0,0,1-.62-.11.46.46,0,0,1-.33-.46,3.33,3.33,0,0,1,.1-.65c.1-.38.15-.6.16-.67a2.26,2.26,0,0,0,1,.27l.57-2.17a13.55,13.55,0,0,0,2.36-.78l.28.33c-.23.81-.48,1.75-.75,2.83h.28a2.75,2.75,0,0,0,.82-.15l.06.52-.48.73c-.23.31-.45.46-.66.46a1.1,1.1,0,0,1-.38,0,31.78,31.78,0,0,0-.78,4.45c0,.54.18.81.55.81a2.61,2.61,0,0,0,1.35-.68l0,.78c-1.63,1.31-2.79,2-3.46,2s-1.14-.52-1.14-1.56a12.81,12.81,0,0,1,.25-2q.25-1.41.81-3.9" transform="translate(-58.43 -27.03)"/><path class="a" d="M349.32,262l-1.08.81a2.12,2.12,0,0,1-1.14.53c-.72,0-1.09-.53-1.09-1.57a18.46,18.46,0,0,1,1-5,23.64,23.64,0,0,0-2.49,4.24c-.2.48-.53,1.16-1,2.06a.57.57,0,0,1-.11.16,2.16,2.16,0,0,1-.86-.19c-.37-.16-.55-.35-.55-.57a43.36,43.36,0,0,1,1.41-7.1c1-3.92,1.66-6.07,2.08-6.47a2.81,2.81,0,0,1,2-.65q.78,0,.78.81a5.82,5.82,0,0,1-.91,2.69,13.38,13.38,0,0,1-1.7,2.39c-.48,1.79-.91,3.59-1.28,5.42.9-1.57,1.53-2.62,1.9-3.14,1-1.48,1.92-2.22,2.63-2.22.5,0,.76.29.76.85a20.27,20.27,0,0,1-.51,2.9c-.11.49-.26,1.23-.46,2.21a7.22,7.22,0,0,0-.1.77c0,.39.24.61.72.65Z" transform="translate(-58.43 -27.03)"/><path class="a" d="M358,258a13.54,13.54,0,0,1-.56,2.93,3.74,3.74,0,0,1-2.09,2,5.11,5.11,0,0,1-2,.44A2.09,2.09,0,0,1,351,261a13.07,13.07,0,0,1,.4-3.11,6.53,6.53,0,0,1,1.08-2.63,3.12,3.12,0,0,1,2.59-1.07,8.37,8.37,0,0,1,1,.05,1.2,1.2,0,0,1,.72-.38c.47,0,.83.29,1.07.88a3.59,3.59,0,0,1,.28,1.46,2,2,0,0,0,.51-.32l.26.24-.3,1.08c-.14.48-.34.74-.59.8m.8-5.26a2,2,0,0,1-.51.07,3.16,3.16,0,0,1-2.29-1.49,7.46,7.46,0,0,1-3.34,1.49,1.61,1.61,0,0,1-.54-.09q3.27-3.44,4.17-3.44c.62,0,1.46,1.15,2.51,3.46m-2.72,5.34c-.3-.09-.44-.55-.44-1.38a15.67,15.67,0,0,1,.11-1.84l-.14,0c-.62,0-1.15.86-1.56,2.6a14.75,14.75,0,0,0-.48,3.38,1.77,1.77,0,0,0,.26.94,1,1,0,0,0,.83.46c.32,0,.58-.28.79-.84a18.6,18.6,0,0,0,.63-3.3" transform="translate(-58.43 -27.03)"/><path class="a" d="M360.45,255.2l.08-.52a6.74,6.74,0,0,0,1.1-.36,3.34,3.34,0,0,1,1.07-.27c.55,0,.83.31.83.95a23,23,0,0,1-.59,2.77l-.39,1.56q1.49-2.59,2.72-4.44a1.48,1.48,0,0,1,.67-.59,3.09,3.09,0,0,1,1-.14c.47,0,.71.22.71.66a16.19,16.19,0,0,1-.29,1.64c-.16.78-.38,2-.67,3.51a7.76,7.76,0,0,0-.11.9.78.78,0,0,0,.68.84v.36c-.1.06-.46.3-1.06.75a2.48,2.48,0,0,1-1,.53,1,1,0,0,1-.85-.47,1.77,1.77,0,0,1-.26-1,29.59,29.59,0,0,1,.85-4.72l.21-.9a25.64,25.64,0,0,0-3.31,6.1c-.16.55-.73.83-1.72.83-.38,0-.57-.21-.57-.61a12,12,0,0,1,.39-1.89,28,28,0,0,0,1-4.71.88.88,0,0,0-.51-.82" transform="translate(-58.43 -27.03)"/><path class="a" d="M373.88,260.76c-1.88,1.79-2.94,2.69-3.19,2.69a1.51,1.51,0,0,1-1.21-.57,1.83,1.83,0,0,1-.45-1.25,15.5,15.5,0,0,1,.56-3.79q.68-2.62,1.68-3.27a3,3,0,0,1,1.64-.39,5.39,5.39,0,0,1,1.36.16l.1.58a.53.53,0,0,1-.16,0h-.16a1.4,1.4,0,0,0-.95.34,4.59,4.59,0,0,0-1,2.37,13.5,13.5,0,0,0-.3,2.64c0,.48.16.73.47.73s.83-.44,1.6-1.32c.18-1.32.29-2.11.32-2.36a12.36,12.36,0,0,1,.54-2.28c.24-.6.56-.9,1-.9a1.06,1.06,0,0,1,.86.6,1.94,1.94,0,0,1,.34,1,2.21,2.21,0,0,1-.27.89c-.23.47-.35.74-.38.81a18.25,18.25,0,0,0-.18,2.34c0,.95-.07,2.2-.07,3.76a2.81,2.81,0,0,1-.52,1.78,4.42,4.42,0,0,1-1.38,1.06l-.49.25a6,6,0,0,1-.78.56,1.76,1.76,0,0,1-.76.18,3.75,3.75,0,0,1-1.9-.6c-.74-.45-1.11-.94-1.11-1.48q0-1.08,1.23-1.08a7.35,7.35,0,0,1,.85.09c.51.08.81.12.91.12v.44q-.36,0-.36.24c0,.18.19.38.59.58a2,2,0,0,0,.87.28.4.4,0,0,0,.36-.18,1.11,1.11,0,0,0,.13-.6,37.92,37.92,0,0,1,.22-4.43" transform="translate(-58.43 -27.03)"/><path class="a" d="M384.15,255.41l.07-.45a7,7,0,0,0,1.19-.51,2.87,2.87,0,0,1,1.15-.38c.49,0,.73.27.73.82a15.23,15.23,0,0,1-.49,2c-.33,1.2-.61,2.25-.84,3.18q1.28-2.37,2.89-4.9a2.05,2.05,0,0,1,1.82-1,.65.65,0,0,1,.74.74q0,.39-1.39,5.21c.64-1.13,1.23-2.13,1.75-3,.26-.44.66-1.08,1.22-1.94a2.13,2.13,0,0,1,.88-.78,3,3,0,0,1,1.26-.22c.37,0,.55.25.55.76a13.37,13.37,0,0,1-.51,2.56,12.85,12.85,0,0,0-.51,3,.86.86,0,0,0,.74.95v.41a6.35,6.35,0,0,0-1.17.93,2,2,0,0,1-1.14.67c-.69,0-1-.54-1-1.62a22.76,22.76,0,0,1,1.19-5.65,27.09,27.09,0,0,0-3.59,6.27,3.2,3.2,0,0,1-.38.68,3.16,3.16,0,0,1-1.53.32c-.31,0-.46-.16-.46-.48a51.92,51.92,0,0,1,1.69-6.62,25.85,25.85,0,0,0-3,5.28,5.89,5.89,0,0,1-.55,1.26,2.8,2.8,0,0,1-1.68.56c-.26,0-.39-.22-.39-.67a9.74,9.74,0,0,1,.29-1.65c.33-1.41.59-2.71.81-3.9a9,9,0,0,0,.15-1.11.64.64,0,0,0-.46-.61" transform="translate(-58.43 -27.03)"/><path class="a" d="M397.87,255.56,398,255a6.09,6.09,0,0,0,1.18-.54,2.84,2.84,0,0,1,1.12-.41c.7,0,1,.37,1,1.11a12,12,0,0,1-.48,2.31c-.27,1-.47,1.73-.6,2.34a4.91,4.91,0,0,0-.17,1c0,.35.2.52.61.52l.2.36a11.38,11.38,0,0,0-1.15,1,2,2,0,0,1-1.26.7c-.8,0-1.2-.5-1.2-1.49a11.48,11.48,0,0,1,.58-3,12.1,12.1,0,0,0,.57-2.61.77.77,0,0,0-.55-.78m1.32-6.19.42-.08a.54.54,0,0,0,.43.28,2.35,2.35,0,0,0,1.5-.56l.2,0c0,.28.05.48.05.59a1.65,1.65,0,0,1-1.86,1.88c-.65,0-1-.2-1-.62a3.65,3.65,0,0,1,.12-.76,3.41,3.41,0,0,0,.11-.76" transform="translate(-58.43 -27.03)"/><path class="a" d="M403.47,255.2l.07-.52a6.17,6.17,0,0,0,1.1-.36,3.45,3.45,0,0,1,1.08-.27c.55,0,.83.31.83.95a23,23,0,0,1-.59,2.77l-.39,1.56q1.49-2.59,2.72-4.44a1.51,1.51,0,0,1,.66-.59,3.2,3.2,0,0,1,1.05-.14c.47,0,.7.22.7.66a14.73,14.73,0,0,1-.28,1.64c-.16.78-.38,2-.67,3.51a7.76,7.76,0,0,0-.11.9.78.78,0,0,0,.68.84v.36c-.11.06-.46.3-1.07.75a2.47,2.47,0,0,1-1,.53,1,1,0,0,1-.85-.47,1.68,1.68,0,0,1-.26-1,29.59,29.59,0,0,1,.85-4.72l.21-.9a25.64,25.64,0,0,0-3.31,6.1c-.16.55-.73.83-1.72.83a.53.53,0,0,1-.58-.61,12.56,12.56,0,0,1,.4-1.89,28,28,0,0,0,1-4.71.88.88,0,0,0-.51-.82" transform="translate(-58.43 -27.03)"/><path class="a" d="M419.45,262l-1.07.81a2.15,2.15,0,0,1-1.15.53c-.72,0-1.09-.53-1.09-1.57a18.17,18.17,0,0,1,1.05-5,24.31,24.31,0,0,0-2.5,4.24c-.2.48-.53,1.16-1,2.06a.61.61,0,0,1-.12.16,2.16,2.16,0,0,1-.86-.19c-.37-.16-.55-.35-.55-.57a43.36,43.36,0,0,1,1.41-7.1c1-3.92,1.66-6.07,2.08-6.47a2.81,2.81,0,0,1,2-.65q.78,0,.78.81a5.82,5.82,0,0,1-.91,2.69,13.38,13.38,0,0,1-1.7,2.39c-.48,1.79-.91,3.59-1.28,5.42.9-1.57,1.53-2.62,1.9-3.14,1-1.48,1.92-2.22,2.63-2.22.51,0,.76.29.76.85a20.27,20.27,0,0,1-.51,2.9c-.11.49-.26,1.23-.45,2.21a5.8,5.8,0,0,0-.11.77c0,.39.24.61.72.65Z" transform="translate(-58.43 -27.03)"/></svg>